<svg version="1.0" xmlns="http://www.w3.org/2000/svg" width="831" height="214" viewBox="0 0 731 114" preserveAspectRatio="xMidYMid meet">
  <g transform="translate(0.000000,114.000000) scale(0.100000,-0.100000)" fill="#FFFFFF" stroke="none">
    <path d="M4084 1070 c-27 -11 -72 -65 -80 -96 -12 -46 6 -97 47 -136 l39 -37 0 -209 0 -210 -25 -16 c-111 -73 -68 -241 64 -254 60 -5 108 20 136 71 24 45 16 119 -15 152 -19 20 -21 30 -15 62 16 86 41 99 200 108 148 8 186 18 229 56 36 31 66 101 66 151 0 21 8 31 30 43 65 34 90 127 50 192 -28 46 -65 67 -120 67 -127 0 -186 -153 -94 -241 33 -30 34 -34 25 -74 -15 -67 -23 -71 -192 -85 -108 -10 -163 -19 -191 -32 l-38 -19 0 123 0 124 36 33 c31 28 37 42 41 83 6 62 -14 106 -60 134 -33 21 -96 25 -133 10z m74 -99 c8 -4 12 -19 10 -32 -2 -18 -9 -24 -28 -24 -28 0 -39 27 -20 50 14 17 20 18 38 6z m560 -90 c5 -30 -10 -45 -37 -36 -21 6 -29 43 -14 59 15 15 48 1 51 -23z"/>
    <path d="M200 595 l0 -325 55 0 55 0 0 325 0 325 -55 0 -55 0 0 -325z"/>
    <path d="M580 785 c-131 -131 -136 -135 -177 -135 l-43 0 0 -55 0 -55 43 0 c41 0 46 -4 177 -135 l135 -135 80 1 80 0 -167 162 -168 162 168 162 167 162 -80 0 -80 1 -135 -135z"/>
    <path d="M1166 903 c-92 -28 -162 -90 -202 -179 -15 -32 -18 -75 -22 -246 l-4 -208 61 0 61 0 0 80 0 80 205 0 205 0 0 -80 0 -80 60 0 60 0 0 305 c0 292 -1 306 -20 325 -18 18 -33 20 -187 19 -120 0 -182 -5 -217 -16z m304 -228 l0 -125 -205 0 -205 0 0 58 c0 76 37 139 101 170 38 19 61 22 177 22 l132 0 0 -125z"/>
    <path d="M1700 782 c0 -123 2 -143 23 -182 30 -61 86 -98 170 -112 l67 -11 0 -103 0 -104 60 0 60 0 0 104 0 104 53 7 c98 13 152 47 188 117 16 31 19 59 19 178 l0 140 -55 0 -55 0 0 -119 c0 -141 -8 -167 -55 -186 -43 -18 -271 -21 -309 -4 -43 20 -56 64 -56 193 l0 116 -55 0 -55 0 0 -138z"/>
    <path d="M2455 907 c-3 -7 -4 -152 -3 -322 l3 -310 58 -3 57 -3 0 326 0 325 -55 0 c-36 0 -57 -5 -60 -13z"/>
    <path d="M2830 785 c-125 -126 -137 -135 -172 -135 l-38 0 0 -55 0 -55 38 0 c35 0 47 -9 172 -135 l135 -135 83 0 83 0 -167 162 -167 163 168 162 167 163 -84 0 -83 0 -135 -135z"/>
    <path d="M3220 900 c-19 -19 -20 -33 -20 -258 0 -227 1 -240 23 -282 16 -33 34 -51 67 -67 42 -22 56 -23 272 -23 l228 0 0 60 0 60 -232 2 -233 3 -3 203 -2 202 235 0 235 0 0 60 0 60 -275 0 c-262 0 -276 -1 -295 -20z"/>
    <path d="M5060 900 c-20 -20 -21 -27 -18 -311 3 -274 4 -291 22 -305 29 -21 362 -20 434 1 70 21 130 70 161 130 24 46 26 60 26 180 0 121 -2 133 -27 180 -32 62 -59 88 -123 117 -46 21 -66 23 -252 26 -194 3 -202 3 -223 -18z m436 -116 c59 -28 74 -66 74 -189 0 -90 -3 -113 -20 -140 -34 -56 -69 -65 -239 -65 l-151 0 0 205 0 205 151 0 c118 0 158 -4 185 -16z"/>
    <path d="M5826 901 c-15 -17 -17 -45 -14 -279 l3 -261 35 -36 c19 -19 50 -40 70 -45 19 -5 133 -10 253 -10 l217 0 0 60 0 60 -223 0 c-160 0 -226 3 -235 12 -9 9 -12 68 -12 205 l0 193 235 0 235 0 0 60 0 60 -273 0 c-255 0 -275 -1 -291 -19z"/>
    <path d="M6509 778 c38 -79 109 -225 160 -325 75 -151 95 -184 116 -189 15 -4 32 -1 42 7 15 13 323 624 323 641 0 5 -27 8 -60 8 l-61 0 -112 -229 c-62 -127 -115 -230 -118 -230 -3 -1 -56 103 -119 229 l-114 230 -62 0 -63 0 68 -142z"/>
    <path d="M3370 595 l0 -55 185 0 185 0 0 55 0 55 -185 0 -185 0 0 -55z"/>
    <path d="M5970 595 l0 -55 185 0 185 0 0 55 0 55 -185 0 -185 0 0 -55z"/>
  </g>
</svg>
